# xmcd CD database file
#
# Track frame offsets:
#	150
#	5785
#	14007
#	21142
#	26595
#	40460
#	66107
#	78597
#	87527
#	98577
#	106562
#	116687
#	129222
#	142520
#	155757
#	162740
#	181967
#	192385
#	199682
#	209250
#	217310
#	227457
#	237412
#
# Disc length: 3547 seconds
#
# Revision: 2
# Processed by: cddbd v1.5.2PL0 Copyright (c) Steve Scherf et al.
# Submitted via: CDex 1.51
#
DISCID=3e0dd917
DTITLE=Edvard Grieg - Songs - Lieder Vol.2
DYEAR=1991
DGENRE=Classique
TTITLE0=''Melodies of the heart'' by H.C. Andersen, Op.5 - Two Brown Eyes
TTITLE1=''Melodies of the heart'' by H.C. Andersen, Op.5 - The Poet's Heart
TTITLE2=''Melodies of the heart'' by H.C. Andersen, Op.5 - I Love Thee
TTITLE3=''Melodies of the heart'' by H.C. Andersen, Op.5 - My Mind is like a mountain steep
TTITLE4=Twelve Songs to poems by A.O. Vinje, Op.33 - The Youth
TTITLE5=Twelve Songs to poems by A.O. Vinje, Op.33 - Last Spring
TTITLE6=Twelve Songs to poems by A.O. Vinje, Op.33 - The Wounded Heart
TTITLE7=Twelve Songs to poems by A.O. Vinje, Op.33 - The Berry
TTITLE8=Twelve Songs to poems by A.O. Vinje, Op.33 - Beside the Stream
TTITLE9=Twelve Songs to poems by A.O. Vinje, Op.33 - A Vision
TTITLE10=Twelve Songs to poems by A.O. Vinje, Op.33 - The Old Mother
TTITLE11=Twelve Songs to poems by A.O. Vinje, Op.33 - The First Thing
TTITLE12=Twelve Songs to poems by A.O. Vinje, Op.33 - At Rondane
TTITLE13=Twelve Songs to poems by A.O. Vinje, Op.33 - A Piece of Friendship
TTITLE14=Twelve Songs to poems by A.O. Vinje, Op.33 - Faith
TTITLE15=Twelve Songs to poems by A.O. Vinje, Op.33 - The Goal
TTITLE16=Six Elegaic Songs by John Paulsen, Op.59 - Autumn Farewell
TTITLE17=Six Elegaic Songs by John Paulsen, Op.59 - The Pine Tree
TTITLE18=Six Elegaic Songs by John Paulsen, Op.59 - To Her. I
TTITLE19=Six Elegaic Songs by John Paulsen, Op.59 - To Her. II
TTITLE20=Six Elegaic Songs by John Paulsen, Op.59 - Goodbye
TTITLE21=Six Elegaic Songs by John Paulsen, Op.59 - Your Eyes are closed forever
TTITLE22=The Mountain Thrall, Op.32
EXTD=YEAR: 1991
EXTT0=
EXTT1=
EXTT2=
EXTT3=
EXTT4=
EXTT5=
EXTT6=
EXTT7=
EXTT8=
EXTT9=
EXTT10=
EXTT11=
EXTT12=
EXTT13=
EXTT14=
EXTT15=
EXTT16=
EXTT17=
EXTT18=
EXTT19=
EXTT20=
EXTT21=
EXTT22=
PLAYORDER=
